<svg xmlns="http://www.w3.org/2000/svg" xmlns:xlink="http://www.w3.org/1999/xlink" viewBox="0 0 352.95 385.53"><defs><style>.cls-1{isolation:isolate;}.cls-2{fill:#d61c4e;}.cls-3{fill:#fac213;}.cls-4{fill:url(#Áåçûìÿííûé_ãðàäèåíò_36);}.cls-5{fill:#fef9a7;}.cls-6{fill:#f77e21;}.cls-10,.cls-11,.cls-12,.cls-16,.cls-17,.cls-7,.cls-8,.cls-9{mix-blend-mode:screen;}.cls-11,.cls-12,.cls-16,.cls-17,.cls-7{opacity:0.72;}.cls-7{fill:url(#Áåçûìÿííûé_ãðàäèåíò_134);}.cls-10,.cls-8,.cls-9{opacity:0.5;}.cls-8{fill:url(#Áåçûìÿííûé_ãðàäèåíò_54);}.cls-9{fill:url(#Áåçûìÿííûé_ãðàäèåíò_54-2);}.cls-10{fill:url(#Áåçûìÿííûé_ãðàäèåíò_54-3);}.cls-11{fill:url(#Áåçûìÿííûé_ãðàäèåíò_94);}.cls-12{fill:url(#Áåçûìÿííûé_ãðàäèåíò_134-2);}.cls-13{fill:url(#Áåçûìÿííûé_ãðàäèåíò_28);}.cls-14{fill:url(#Áåçûìÿííûé_ãðàäèåíò_36-2);}.cls-15{fill:#fff;}.cls-16{fill:url(#Áåçûìÿííûé_ãðàäèåíò_134-3);}.cls-17{fill:url(#Áåçûìÿííûé_ãðàäèåíò_94-2);}.cls-18{fill:url(#Áåçûìÿííûé_ãðàäèåíò_28-2);}</style><linearGradient id="Áåçûìÿííûé_ãðàäèåíò_36" x1="415.88" y1="232.86" x2="566.32" y2="232.86" gradientTransform="translate(34.16 -149.76) rotate(10.91)" gradientUnits="userSpaceOnUse"><stop offset="0" stop-color="#8879ea"/><stop offset="1" stop-color="#9e8cef"/></linearGradient><linearGradient id="Áåçûìÿííûé_ãðàäèåíò_134" x1="332.79" y1="143.29" x2="370.56" y2="143.29" gradientUnits="userSpaceOnUse"><stop offset="0"/><stop offset="1" stop-color="#d4e2ff"/></linearGradient><linearGradient id="Áåçûìÿííûé_ãðàäèåíò_54" x1="397.1" y1="108.35" x2="516.34" y2="108.35" gradientTransform="translate(34.16 -149.76) rotate(10.91)" gradientUnits="userSpaceOnUse"><stop offset="0"/><stop offset="1" stop-color="#6a9bff"/></linearGradient><linearGradient id="Áåçûìÿííûé_ãðàäèåíò_54-2" x1="404.47" y1="204.65" x2="491.85" y2="204.65" xlink:href="#Áåçûìÿííûé_ãðàäèåíò_54"/><linearGradient id="Áåçûìÿííûé_ãðàäèåíò_54-3" x1="384.75" y1="204.65" x2="384.75" y2="147.71" xlink:href="#Áåçûìÿííûé_ãðàäèåíò_54"/><linearGradient id="Áåçûìÿííûé_ãðàäèåíò_94" x1="559.65" y1="90.54" x2="559.65" y2="64.8" gradientTransform="translate(1.64 12.14) rotate(-0.29)" gradientUnits="userSpaceOnUse"><stop offset="0" stop-color="#d4e2ff"/><stop offset="1"/></linearGradient><linearGradient id="Áåçûìÿííûé_ãðàäèåíò_134-2" x1="538.25" y1="21.4" x2="588.69" y2="21.4" gradientTransform="translate(1.64 12.14) rotate(-0.29)" xlink:href="#Áåçûìÿííûé_ãðàäèåíò_134"/><linearGradient id="Áåçûìÿííûé_ãðàäèåíò_28" x1="356.05" y1="276.74" x2="353.29" y2="249.61" gradientUnits="userSpaceOnUse"><stop offset="0" stop-color="#be9dea"/><stop offset="1" stop-color="#9e8cef"/></linearGradient><linearGradient id="Áåçûìÿííûé_ãðàäèåíò_36-2" x1="401.61" y1="272.59" x2="449.25" y2="272.59" gradientTransform="translate(-23.14 121.91) rotate(-8.66)" xlink:href="#Áåçûìÿííûé_ãðàäèåíò_36"/><linearGradient id="Áåçûìÿííûé_ãðàäèåíò_134-3" x1="400.73" y1="161.73" x2="471.32" y2="161.73" gradientTransform="translate(-18.29 235.58) rotate(-16.58)" xlink:href="#Áåçûìÿííûé_ãðàäèåíò_134"/><linearGradient id="Áåçûìÿííûé_ãðàäèåíò_94-2" x1="439.53" y1="243.32" x2="439.53" y2="235.17" gradientTransform="translate(-18.29 235.58) rotate(-16.58)" xlink:href="#Áåçûìÿííûé_ãðàäèåíò_94"/><linearGradient id="Áåçûìÿííûé_ãðàäèåíò_28-2" x1="582.27" y1="154.74" x2="582.27" y2="129.55" gradientTransform="matrix(0.86, -0.51, 0.51, 0.86, 20.42, 454.05)" xlink:href="#Áåçûìÿííûé_ãðàäèåíò_28"/></defs><g class="cls-1"><g id="chatbot"><path class="cls-2" d="M416.49,18.94S398.23,32,390.85,61.28,426,54.41,426,54.41Z" transform="translate(-289.49 -7.24)"/><path class="cls-3" d="M400.42,49.49s13.9-35.12,26.7-40.68S459,14.19,459,14.19Z" transform="translate(-289.49 -7.24)"/><path class="cls-3" d="M558.63,168.39c-33.47,35.43-161.9,17.32-179.86-7.06-7.15-9.72-10.67-21.38-11.12-33.85v0C365.77,74.06,420.15,5.74,487.5,11c45.64,3.58,75.85,47.72,83.83,90.15C576.34,127.68,572.66,153.54,558.63,168.39Z" transform="translate(-289.49 -7.24)"/><path class="cls-4" d="M530,183c-17,3.86-41.92,5.82-58.23,4.86-30.29-1.77-51.92-6.43-63.85-12h0c-7.84-3.68-11.49-7.72-10.7-11.62.48-2.38,6.55-4.14,16-5.32,27.79-3.41,84.8-1.64,115.21,4.76,2.62.56,5,1.14,7.23,1.77.48.13.92.27,1.36.41a1.17,1.17,0,0,1,.25.07c5.22,1.6,8.88,3.41,10.43,5.45a3.75,3.75,0,0,1,.79,1.55C549.36,176.93,541.48,180.4,530,183Z" transform="translate(-289.49 -7.24)"/><path class="cls-5" d="M558.63,168.39c-33.47,35.43-161.9,17.32-179.86-7.06-7.15-9.72-10.67-21.38-11.12-33.85v0s7.67,17.36,33.68,22.06,102.62,5.26,118.79-5.32,13.22-63.4,13.22-63.4l38,20.38C576.34,127.68,572.66,153.54,558.63,168.39Z" transform="translate(-289.49 -7.24)"/><path class="cls-3" d="M530,183c-12.73-6.43-50-23.34-81-18.23-38,6.25-41.1,11.08-41.1,11.08h0c-7.84-3.68-11.49-7.72-10.7-11.62.48-2.38,6.55-4.14,16-5.32,27.79-3.41,84.8-1.64,115.21,4.76,3.18.76,6,1.49,8.59,2.18a1.17,1.17,0,0,1,.25.07c5.22,1.6,8.88,3.41,10.43,5.45a3.75,3.75,0,0,1,.79,1.55C549.36,176.93,541.48,180.4,530,183Z" transform="translate(-289.49 -7.24)"/><path class="cls-6" d="M535.61,165.42c-7.55,6.44-42.22,10.39-61.8,9.24-35.08-2.07-56.08-8.82-60.64-15.77C443.35,155.2,508,157.59,535.61,165.42Z" transform="translate(-289.49 -7.24)"/><path class="cls-6" d="M367.19,129.86c4.56,16.31,115.5,28.55,145.58,2.26s8.7-121-50.65-115.94C405.53,21,358.94,100.31,367.19,129.86Z" transform="translate(-289.49 -7.24)"/><path class="cls-5" d="M367.66,127.44c4.56,16.31,115.49,28.56,145.57,2.27s8.7-121-50.65-115.95C406,18.6,359.4,97.89,367.66,127.44Z" transform="translate(-289.49 -7.24)"/><path class="cls-3" d="M522.28,30S516.53,84.81,550.46,104c0,0,16.61,1.7,26.21-8.43,0,0-15,14.21-30.88-.43S533.47,40,545.44,26.71s29.37-9.88,29.37-9.88l-7-6.22S542.2,5.52,522.28,30Z" transform="translate(-289.49 -7.24)"/><path class="cls-5" d="M567.83,10.61S549,9,536,30.87c-13.85,23.26-3.5,63.31,13.5,69.32s33.81-59,33.81-59l-10-25.76A11.69,11.69,0,0,0,567.83,10.61Z" transform="translate(-289.49 -7.24)"/><path class="cls-2" d="M592.43,65.75c-2.36,12.54-7.41,22.8-14.2,29.31l-.06,0-1.89,1.7h0a24.79,24.79,0,0,1-19.09,5.78c-22.92-2.8-26.17-36-23.57-54.78,3-21.73,21.55-34.87,36.34-33C587.54,17,597.05,41.21,592.43,65.75Z" transform="translate(-289.49 -7.24)"/><path class="cls-3" d="M367,112.5a84.14,84.14,0,0,0-31.14,16.06c-15.13,12.41-19.12,27.57-.45,26.21l8.65-5.07s-11.16,1.56-9.68-9.79,32.22-25.32,32.22-25.32Z" transform="translate(-289.49 -7.24)"/><path class="cls-2" d="M332.15,145.48c-5.61,5.69,5.33,10.87,14.49,12.38,10.29,1.68,28.82.56,28.28-9.92S345.3,132.13,332.15,145.48Z" transform="translate(-289.49 -7.24)"/><path class="cls-7" d="M332.79,146.62c-.41,1.68,36.51,4.1,37.73-2.38S335.94,133.56,332.79,146.62Z" transform="translate(-289.49 -7.24)"/><path class="cls-2" d="M463.1,80.11c-.8,1.09,14.57-8.82,39,.68C504.55,81.73,478.81,58.59,463.1,80.11Z" transform="translate(-289.49 -7.24)"/><path class="cls-2" d="M385.94,80.2c-.8,1.09,7.28-6.69,28.76-1.48C417.22,79.33,400.06,61,385.94,80.2Z" transform="translate(-289.49 -7.24)"/><path class="cls-8" d="M398.52,59.34c2.52,3.81,23.54-7.11,46.67-4.78s48.44,25,67.39,22.21c15-2.24-4.8-56.34-43.11-61.17S396,55.56,398.52,59.34Z" transform="translate(-289.49 -7.24)"/><path class="cls-9" d="M391.68,132.34a162.06,162.06,0,0,1,53.8-3.07c29.73,3.32,34.53,6.47,34,9.27s-22.18,8.54-49.46,5.64S391.68,132.34,391.68,132.34Z" transform="translate(-289.49 -7.24)"/><path class="cls-10" d="M368.49,123.11s-3.05-21,15.87-50.61c0,0,4.06-4.65,5.92-3S373.22,92.7,368.49,123.11Z" transform="translate(-289.49 -7.24)"/><path class="cls-11" d="M537.47,74.26S540,94.6,555,98.92,582,92.38,585.79,77.09c0,0-4.63,13.19-24.1,9.92S537.47,74.26,537.47,74.26Z" transform="translate(-289.49 -7.24)"/><path class="cls-12" d="M540,35.8c.19,3.79,27.59-4.22,36.33-3.11s12.49,11.8,13.88,11.54-2.44-25.26-18.67-27S539.9,33.17,540,35.8Z" transform="translate(-289.49 -7.24)"/><path class="cls-2" d="M411.16,101.17s27.27,1,42.73-2.93c0,0-3.66,25.55-21.36,25.55S411.16,101.17,411.16,101.17Z" transform="translate(-289.49 -7.24)"/><path class="cls-5" d="M410.09,252.07S364.33,278,353.56,277s-6-25.52-6-25.52c1.43-1.68,3-3.43,4.73-5.22l0,0c17.21-18.16,46.57-41.31,63.45-52.33l0,0c7.1-4.64,12-7.14,12.82-6.2C434.87,194.64,410.09,252.07,410.09,252.07Z" transform="translate(-289.49 -7.24)"/><path class="cls-13" d="M347.59,251.48s6-5,13.39,1.73-.23,23-7.42,23.78S342.07,262,347.59,251.48Z" transform="translate(-289.49 -7.24)"/><path class="cls-3" d="M410.09,252.07S364.33,278,353.56,277s-6-25.52-6-25.52c1.43-1.68,3-3.43,4.73-5.22l0,0s11.19,6.6,31.81,3.45,31.64-55.78,31.64-55.78l0,0c7.1-4.64,12-7.14,12.82-6.2C434.87,194.64,410.09,252.07,410.09,252.07Z" transform="translate(-289.49 -7.24)"/><path class="cls-5" d="M463.53,336.75c.68,9.73-9.86,42.82-20.52,53a.06.06,0,0,0,0,0c-2.06,1.95-4.12,3.06-6.1,3-8.83-.34-19.22-40.8-23.15-63.88-1.5-8.92-2-15.22-1.15-15.62C420.08,310,462.69,325.17,463.53,336.75Z" transform="translate(-289.49 -7.24)"/><path class="cls-14" d="M464,339.89s-9.66,7.33-27.38,1.59c-13.84-4.48-25.63-24.16-24-28.21S467.68,324.07,464,339.89Z" transform="translate(-289.49 -7.24)"/><path class="cls-3" d="M463.53,336.75c.68,9.73-9.86,42.82-20.52,53,7.39-11.67,4.5-32.71-2.68-41.45-5.41-6.64-19.86-15.51-26.58-19.42-1.5-8.92-2-15.22-1.15-15.62C420.08,310,462.69,325.17,463.53,336.75Z" transform="translate(-289.49 -7.24)"/><path class="cls-15" d="M429.88,351.4c-2.71-.19-.9,7.14-.38,7.55s1.76-2.07,1.88-4.08C431.49,353.08,430.84,351.47,429.88,351.4Z" transform="translate(-289.49 -7.24)"/><path class="cls-5" d="M527,277.65c2.68,36.45-12.54,57-47.77,66.93-34.52,9.77-66.75-21.21-68.69-68.27-1.23-30-.38-57.28,9.67-77.06v-.06a53,53,0,0,1,27.19-25.51c10.16-4.39,20.59-1.33,30.41,6.22C503.43,199.55,524.93,249.57,527,277.65Z" transform="translate(-289.49 -7.24)"/><path class="cls-3" d="M489.44,218.91s11.61,25.59,16.91,43.38c6.28,21.11.36,45.14.36,45.14l20.59-23.61s.8-15.26-4.65-29S514.13,235,514.13,235Z" transform="translate(-289.49 -7.24)"/><path class="cls-6" d="M410.11,282.29s.29-28.23,25-35.59c29.62-8.82,59.33,18,64.16,40.71s4.25,45.57-23.47,54.77C475.81,342.18,423.06,356.61,410.11,282.29Z" transform="translate(-289.49 -7.24)"/><path class="cls-2" d="M411.34,285.37s.29-28.24,25-35.6c29.61-8.81,59.32,18,64.16,40.72s4.24,45.56-23.48,54.77C477,345.26,424.29,359.69,411.34,285.37Z" transform="translate(-289.49 -7.24)"/><path class="cls-2" d="M511.62,243.25c-1.28.38-3-.28-4.91-1.71-8.67-6.42-22.29-28.33-26.17-41.61-1.49-5.14-1.53-9,.77-10.14,3.75-1.86,15.76,9.09,25.25,26.68C512.06,226.72,517.11,241.62,511.62,243.25Z" transform="translate(-289.49 -7.24)"/><path class="cls-6" d="M506.71,241.54c-8.67-6.42-22.29-28.33-26.17-41.61,5.38,3.87,13,12.75,19.44,24.72A74.84,74.84,0,0,1,506.71,241.54Z" transform="translate(-289.49 -7.24)"/><path class="cls-3" d="M477.48,179.7s-32.15,24.42-46.5,27c-13.94,2.51-11.28-7.09-11.12-7.64V199a53,53,0,0,1,27.2-25.51C457.23,169.09,467.66,172.15,477.48,179.7Z" transform="translate(-289.49 -7.24)"/><path class="cls-16" d="M413.79,282.06c5.84,6,17-7.25,34.95-10.41s30,3.23,34.24-.77-19.17-25.25-46.12-18.36C415.33,258,411.8,280,413.79,282.06Z" transform="translate(-289.49 -7.24)"/><path class="cls-17" d="M452.39,340.79a31.69,31.69,0,0,0,21.63,2c12.17-3.15,14.43-10.17,14.43-10.17s-6-.75-14,3.45S458.36,341.49,452.39,340.79Z" transform="translate(-289.49 -7.24)"/><path class="cls-15" d="M460.52,207.81c-2.08.68.33,22.24,2.23,22.42s2.88-4.84,2.55-12S462.53,207.15,460.52,207.81Z" transform="translate(-289.49 -7.24)"/><path class="cls-5" d="M608.12,271.92c3.27,13.7-9.56,22.95-15.17,22.51-4.9-.38-21.09-5.9-42.39-21l-.06,0q-4.69-3.33-9.71-7.29c-26-20.64-62.92-65.26-51.27-69.6h.06C523.42,184,604.83,258.25,608.12,271.92Z" transform="translate(-289.49 -7.24)"/><path class="cls-18" d="M582,291.22s-6.15-10.75,1-20.08S606.77,269,606.77,269s7.19,11.9-5.43,19.67S582,291.22,582,291.22Z" transform="translate(-289.49 -7.24)"/><path class="cls-3" d="M608.12,271.92c3.27,13.7-9.56,22.95-15.17,22.51-4.9-.38-21.09-5.9-42.39-21,1.93,1.2,16,9.69,22,6.13,6.44-3.85,8.21-29.15-26.69-59.23-33.8-29.18-55-24.17-56.31-23.83C523.42,184,604.83,258.25,608.12,271.92Z" transform="translate(-289.49 -7.24)"/><path class="cls-5" d="M588.08,275.51c4.48-4.61,15.44-5.34,20.94-2.76s23.63,16.41,33.42,42.39c0,0-1.69,15.29-12,18.3-7.85,2.29-21.51-17-31.9-30.29S580.69,283.12,588.08,275.51Z" transform="translate(-289.49 -7.24)"/><path class="cls-3" d="M632.08,333.28S607.37,284.22,583.69,288c0,0,4.45,7.71,18.8,23.12S627,334.8,632.08,333.28Z" transform="translate(-289.49 -7.24)"/><path class="cls-6" d="M615.42,308.24s.37,9.68-1.85,12.95a9.4,9.4,0,0,1-5.39,3.91l-3.54-28S612.46,303.48,615.42,308.24Z" transform="translate(-289.49 -7.24)"/><path class="cls-5" d="M604.64,297.13s-11.37-10.24-20.83-7.78c0,0-1.81,11.67,19.11,36.31,0,0,7.46,2.17,9.09-6.74C612,318.92,609.92,306.77,604.64,297.13Z" transform="translate(-289.49 -7.24)"/><path class="cls-15" d="M597.33,296c2.47-1.83,6.82,11.89,5.34,12.59S595.27,297.5,597.33,296Z" transform="translate(-289.49 -7.24)"/><path class="cls-15" d="M520.84,236.07c-3,5.47,6.57,9.55,9.1,8.7S522.89,232.34,520.84,236.07Z" transform="translate(-289.49 -7.24)"/><path class="cls-15" d="M531.94,246.81c-.91.68,3,4.13,3.92,4.71,1.8,1.11,5.42,1.6,5.59.93S533,246,531.94,246.81Z" transform="translate(-289.49 -7.24)"/><path class="cls-15" d="M368.68,234.25c.48,1.56,11.26-3.3,11.3-7.95S368,232,368.68,234.25Z" transform="translate(-289.49 -7.24)"/><path class="cls-5" d="M562.31,381.89c-1.9,1.9-5.49,1.85-10,.44-5-1.56-11.09-4.71-17.45-8.65l-.05,0-.07,0c-17.72-11-37.17-28-38.22-32.92-3.57-17.16,13.79-39.18,24.86-50.07,4.32-4.26,7.69-6.81,8.46-6.73C532.57,284.22,572.14,372.05,562.31,381.89Z" transform="translate(-289.49 -7.24)"/><path class="cls-3" d="M562.31,381.89c-1.9,1.9-5.49,1.85-10,.44l-17.45-8.65c1.64.71,20.38,8.19,14-18.83-6.62-28.26-28.17-62.06-28.17-62.06l.65-2.16c4.32-4.26,7.69-6.81,8.46-6.73C532.57,284.22,572.14,372.05,562.31,381.89Z" transform="translate(-289.49 -7.24)"/><path class="cls-15" d="M510.29,335c-4.16,2.57,6.19,11.33,7.37,11.39s.4-4.88-1.55-7.93C514.38,335.71,511.75,334.05,510.29,335Z" transform="translate(-289.49 -7.24)"/><path class="cls-15" d="M519.16,347.29c-.61,1,2.6,3.7,3.08,2.72a3,3,0,0,0-1-3.11A1.82,1.82,0,0,0,519.16,347.29Z" transform="translate(-289.49 -7.24)"/><path class="cls-15" d="M315.31,255.82c.12,1.85,13.18-4.21,13.18-6.4S315.1,252.69,315.31,255.82Z" transform="translate(-289.49 -7.24)"/><path class="cls-3" d="M289.49,278.61a22.41,22.41,0,0,0,2.47,8.45s6.34,4.35,18.78,3.86,38-13.52,41.52-15.89,5.43-9.63,5.43-9.63Z" transform="translate(-289.49 -7.24)"/><path class="cls-5" d="M356.69,252.14c-6.29-2.54-22.46.93-32.36,4.57s-26.08,14.81-34.84,21.9c0,0,.18,6.74,13.13,8.33s47.77-13.08,53.59-19.46S356.69,252.14,356.69,252.14Z" transform="translate(-289.49 -7.24)"/><path class="cls-3" d="M311.83,263s22-3,33.2-11.37C345,251.66,326.12,250.85,311.83,263Z" transform="translate(-289.49 -7.24)"/><path class="cls-5" d="M341.72,252.14s-12.89,7.45-26.5,8c0,0-13.81.17-14.57-1.42s-1.2-7.68,2.35-9.21S330.42,245.3,341.72,252.14Z" transform="translate(-289.49 -7.24)"/><path class="cls-3" d="M313.92,262.7a97.08,97.08,0,0,1,34.23,10.23l2.08-1.16S337.37,262.72,313.92,262.7Z" transform="translate(-289.49 -7.24)"/><path class="cls-15" d="M313.33,282.13s7.45-4.36,15.1-3.95C328.43,278.18,318,283,313.33,282.13Z" transform="translate(-289.49 -7.24)"/></g></g></svg>